<mxfile host="65bd71144e">
    <diagram name="Page-1" id="efYkgYs00_tLd2PNozO3">
        <mxGraphModel dx="1582" dy="549" grid="1" gridSize="10" guides="1" tooltips="1" connect="1" arrows="1" fold="1" page="1" pageScale="1" pageWidth="827" pageHeight="1169" math="0" shadow="0">
            <root>
                <mxCell id="0"/>
                <mxCell id="1" parent="0"/>
                <mxCell id="GH7_EwWvfFFCplkIZbcH-1" value="" style="rounded=1;whiteSpace=wrap;html=1;absoluteArcSize=1;arcSize=14;strokeWidth=2;fillColor=#A9C4EB;strokeColor=#7EA6E0;fontColor=#000000;" parent="1" vertex="1">
                    <mxGeometry x="10" y="60" width="2480" height="402" as="geometry"/>
                </mxCell>
                <mxCell id="GH7_EwWvfFFCplkIZbcH-2" value="" style="rounded=1;whiteSpace=wrap;html=1;absoluteArcSize=1;arcSize=14;strokeWidth=2;fillColor=#FAD7AC;fontColor=#000000;strokeColor=#B46504;" parent="1" vertex="1">
                    <mxGeometry x="150" y="120" width="1320" height="330" as="geometry"/>
                </mxCell>
                <mxCell id="7" value="" style="rounded=1;whiteSpace=wrap;html=1;absoluteArcSize=1;arcSize=14;strokeWidth=2;fillColor=#CDEB8B;fontColor=#000000;strokeColor=#97D077;fillStyle=hatch;dashed=1;" parent="1" vertex="1">
                    <mxGeometry x="820" y="182" width="470" height="200" as="geometry"/>
                </mxCell>
                <mxCell id="8" value="" style="rounded=1;whiteSpace=wrap;html=1;absoluteArcSize=1;arcSize=14;strokeWidth=2;fillColor=#CDEB8B;fontColor=#000000;strokeColor=#97D077;" parent="1" vertex="1">
                    <mxGeometry x="840" y="197" width="470" height="200" as="geometry"/>
                </mxCell>
                <mxCell id="6" value="" style="rounded=1;whiteSpace=wrap;html=1;absoluteArcSize=1;arcSize=14;strokeWidth=2;fillColor=#CDEB8B;fontColor=#000000;strokeColor=#97D077;fillStyle=hatch;dashed=1;" parent="1" vertex="1">
                    <mxGeometry x="250" y="182" width="470" height="200" as="geometry"/>
                </mxCell>
                <mxCell id="4" value="" style="rounded=1;whiteSpace=wrap;html=1;absoluteArcSize=1;arcSize=14;strokeWidth=2;fillColor=#CDEB8B;fontColor=#000000;strokeColor=#97D077;" parent="1" vertex="1">
                    <mxGeometry x="270" y="197" width="470" height="200" as="geometry"/>
                </mxCell>
                <mxCell id="GH7_EwWvfFFCplkIZbcH-3" value="" style="rounded=1;whiteSpace=wrap;html=1;absoluteArcSize=1;arcSize=14;strokeWidth=2;fillColor=#CDEB8B;fontColor=#000000;strokeColor=#97D077;" parent="1" vertex="1">
                    <mxGeometry x="290" y="212" width="470" height="200" as="geometry"/>
                </mxCell>
                <mxCell id="GH7_EwWvfFFCplkIZbcH-7" value="" style="rounded=1;whiteSpace=wrap;html=1;absoluteArcSize=1;arcSize=14;strokeWidth=2;fillColor=#CDEB8B;fontColor=#000000;strokeColor=#97D077;" parent="1" vertex="1">
                    <mxGeometry x="860" y="212" width="470" height="200" as="geometry"/>
                </mxCell>
                <mxCell id="11" value="" style="edgeStyle=elbowEdgeStyle;elbow=horizontal;endArrow=classic;html=1;curved=0;rounded=0;endSize=8;startSize=8;exitX=0;exitY=0.5;exitDx=0;exitDy=0;strokeWidth=6;fontColor=#000000;strokeColor=#000000;" parent="1" edge="1">
                    <mxGeometry width="50" height="50" relative="1" as="geometry">
                        <mxPoint x="150" y="312" as="sourcePoint"/>
                        <mxPoint x="250" y="262" as="targetPoint"/>
                        <Array as="points">
                            <mxPoint x="200" y="292"/>
                        </Array>
                    </mxGeometry>
                </mxCell>
                <mxCell id="13" value="" style="edgeStyle=elbowEdgeStyle;elbow=horizontal;endArrow=classic;html=1;curved=0;rounded=0;endSize=8;startSize=8;strokeWidth=6;fontColor=#000000;strokeColor=#000000;" parent="1" edge="1">
                    <mxGeometry width="50" height="50" relative="1" as="geometry">
                        <mxPoint x="170" y="312" as="sourcePoint"/>
                        <mxPoint x="290" y="362" as="targetPoint"/>
                        <Array as="points">
                            <mxPoint x="200" y="332"/>
                        </Array>
                    </mxGeometry>
                </mxCell>
                <mxCell id="14" value="" style="edgeStyle=elbowEdgeStyle;elbow=horizontal;endArrow=classic;html=1;curved=0;rounded=0;endSize=8;startSize=8;strokeWidth=6;fontColor=#000000;strokeColor=#000000;" parent="1" edge="1">
                    <mxGeometry width="50" height="50" relative="1" as="geometry">
                        <mxPoint x="10" y="312" as="sourcePoint"/>
                        <mxPoint x="270" y="312" as="targetPoint"/>
                        <Array as="points">
                            <mxPoint x="220" y="282"/>
                        </Array>
                    </mxGeometry>
                </mxCell>
                <mxCell id="15" value="" style="endArrow=classic;html=1;exitX=1;exitY=0.5;exitDx=0;exitDy=0;strokeWidth=6;fontColor=#000000;strokeColor=#000000;" parent="1" source="GH7_EwWvfFFCplkIZbcH-3" edge="1">
                    <mxGeometry width="50" height="50" relative="1" as="geometry">
                        <mxPoint x="830" y="342" as="sourcePoint"/>
                        <mxPoint x="840" y="312" as="targetPoint"/>
                    </mxGeometry>
                </mxCell>
                <mxCell id="16" value="" style="endArrow=classic;html=1;exitX=1;exitY=0.25;exitDx=0;exitDy=0;strokeWidth=6;fontColor=#000000;strokeColor=#000000;" parent="1" source="GH7_EwWvfFFCplkIZbcH-3" edge="1">
                    <mxGeometry width="50" height="50" relative="1" as="geometry">
                        <mxPoint x="840" y="302" as="sourcePoint"/>
                        <mxPoint x="820" y="262" as="targetPoint"/>
                    </mxGeometry>
                </mxCell>
                <mxCell id="17" value="" style="endArrow=classic;html=1;exitX=1;exitY=0.75;exitDx=0;exitDy=0;entryX=0;entryY=0.75;entryDx=0;entryDy=0;strokeWidth=6;fontColor=#000000;strokeColor=#000000;" parent="1" source="GH7_EwWvfFFCplkIZbcH-3" target="GH7_EwWvfFFCplkIZbcH-7" edge="1">
                    <mxGeometry width="50" height="50" relative="1" as="geometry">
                        <mxPoint x="840" y="312" as="sourcePoint"/>
                        <mxPoint x="820" y="362" as="targetPoint"/>
                    </mxGeometry>
                </mxCell>
                <mxCell id="19" value="" style="edgeStyle=elbowEdgeStyle;elbow=horizontal;endArrow=none;html=1;curved=0;rounded=0;endSize=8;startSize=8;exitX=1;exitY=0.75;exitDx=0;exitDy=0;entryX=1;entryY=0.5;entryDx=0;entryDy=0;strokeWidth=6;endFill=0;fontColor=#000000;strokeColor=#000000;" parent="1" source="GH7_EwWvfFFCplkIZbcH-7" edge="1">
                    <mxGeometry width="50" height="50" relative="1" as="geometry">
                        <mxPoint x="1360" y="362" as="sourcePoint"/>
                        <mxPoint x="1469.9999999999995" y="312" as="targetPoint"/>
                        <Array as="points">
                            <mxPoint x="1390" y="342"/>
                        </Array>
                    </mxGeometry>
                </mxCell>
                <mxCell id="20" value="" style="edgeStyle=elbowEdgeStyle;elbow=horizontal;endArrow=none;html=1;curved=0;rounded=0;endSize=8;startSize=8;exitX=1;exitY=0.5;exitDx=0;exitDy=0;entryX=1;entryY=0.5;entryDx=0;entryDy=0;strokeWidth=6;endFill=0;fontColor=#000000;strokeColor=#000000;" parent="1" source="GH7_EwWvfFFCplkIZbcH-7" edge="1">
                    <mxGeometry width="50" height="50" relative="1" as="geometry">
                        <mxPoint x="1360" y="302" as="sourcePoint"/>
                        <mxPoint x="1469.9999999999995" y="312" as="targetPoint"/>
                    </mxGeometry>
                </mxCell>
                <mxCell id="21" value="" style="edgeStyle=elbowEdgeStyle;elbow=horizontal;endArrow=none;html=1;curved=0;rounded=0;endSize=8;startSize=8;exitX=1;exitY=0.25;exitDx=0;exitDy=0;strokeWidth=6;endFill=0;fontColor=#000000;strokeColor=#000000;" parent="1" source="GH7_EwWvfFFCplkIZbcH-7" edge="1">
                    <mxGeometry width="50" height="50" relative="1" as="geometry">
                        <mxPoint x="1370" y="282" as="sourcePoint"/>
                        <mxPoint x="1520" y="312" as="targetPoint"/>
                        <Array as="points">
                            <mxPoint x="1390" y="282"/>
                        </Array>
                    </mxGeometry>
                </mxCell>
                <mxCell id="22" value="" style="rounded=1;whiteSpace=wrap;html=1;absoluteArcSize=1;arcSize=14;strokeWidth=2;fillColor=#FAD7AC;fontColor=#000000;strokeColor=#B46504;" parent="1" vertex="1">
                    <mxGeometry x="1500" y="120" width="850" height="330" as="geometry"/>
                </mxCell>
                <mxCell id="23" value="" style="rounded=1;whiteSpace=wrap;html=1;absoluteArcSize=1;arcSize=14;strokeWidth=2;fillColor=#CDEB8B;fontColor=#000000;strokeColor=#97D077;fillStyle=hatch;dashed=1;" parent="1" vertex="1">
                    <mxGeometry x="2010" y="182" width="170" height="200" as="geometry"/>
                </mxCell>
                <mxCell id="24" value="" style="rounded=1;whiteSpace=wrap;html=1;absoluteArcSize=1;arcSize=14;strokeWidth=2;fillColor=#CDEB8B;fontColor=#000000;strokeColor=#97D077;" parent="1" vertex="1">
                    <mxGeometry x="2030" y="197" width="170" height="200" as="geometry"/>
                </mxCell>
                <mxCell id="25" value="" style="rounded=1;whiteSpace=wrap;html=1;absoluteArcSize=1;arcSize=14;strokeWidth=2;fillColor=#CDEB8B;fontColor=#000000;strokeColor=#97D077;fillStyle=hatch;dashed=1;" parent="1" vertex="1">
                    <mxGeometry x="1600" y="182" width="330" height="200" as="geometry"/>
                </mxCell>
                <mxCell id="26" value="" style="rounded=1;whiteSpace=wrap;html=1;absoluteArcSize=1;arcSize=14;strokeWidth=2;fillColor=#CDEB8B;fontColor=#000000;strokeColor=#97D077;" parent="1" vertex="1">
                    <mxGeometry x="1620" y="197" width="330" height="200" as="geometry"/>
                </mxCell>
                <mxCell id="27" value="" style="rounded=1;whiteSpace=wrap;html=1;absoluteArcSize=1;arcSize=14;strokeWidth=2;fillColor=#CDEB8B;fontColor=#000000;strokeColor=#97D077;" parent="1" vertex="1">
                    <mxGeometry x="1640" y="212" width="330" height="200" as="geometry"/>
                </mxCell>
                <mxCell id="31" value="" style="rounded=1;whiteSpace=wrap;html=1;absoluteArcSize=1;arcSize=14;strokeWidth=2;fillColor=#CDEB8B;fontColor=#000000;strokeColor=#97D077;" parent="1" vertex="1">
                    <mxGeometry x="2050" y="212" width="170" height="200" as="geometry"/>
                </mxCell>
                <mxCell id="35" value="" style="edgeStyle=elbowEdgeStyle;elbow=horizontal;endArrow=classic;html=1;curved=0;rounded=0;endSize=8;startSize=8;exitX=0;exitY=0.5;exitDx=0;exitDy=0;strokeWidth=6;fontColor=#000000;strokeColor=#000000;" parent="1" edge="1">
                    <mxGeometry width="50" height="50" relative="1" as="geometry">
                        <mxPoint x="1500" y="312" as="sourcePoint"/>
                        <mxPoint x="1600" y="262" as="targetPoint"/>
                        <Array as="points">
                            <mxPoint x="1550" y="292"/>
                        </Array>
                    </mxGeometry>
                </mxCell>
                <mxCell id="36" value="" style="edgeStyle=elbowEdgeStyle;elbow=horizontal;endArrow=classic;html=1;curved=0;rounded=0;endSize=8;startSize=8;strokeWidth=6;fontColor=#000000;strokeColor=#000000;" parent="1" edge="1">
                    <mxGeometry width="50" height="50" relative="1" as="geometry">
                        <mxPoint x="1520" y="312" as="sourcePoint"/>
                        <mxPoint x="1640" y="361.9999999999998" as="targetPoint"/>
                        <Array as="points">
                            <mxPoint x="1550" y="332"/>
                        </Array>
                    </mxGeometry>
                </mxCell>
                <mxCell id="37" value="" style="edgeStyle=elbowEdgeStyle;elbow=horizontal;endArrow=classic;html=1;curved=0;rounded=0;endSize=8;startSize=8;strokeWidth=6;fontColor=#000000;strokeColor=#000000;" parent="1" edge="1">
                    <mxGeometry width="50" height="50" relative="1" as="geometry">
                        <mxPoint x="1490" y="312" as="sourcePoint"/>
                        <mxPoint x="1620" y="312" as="targetPoint"/>
                        <Array as="points">
                            <mxPoint x="1570" y="282"/>
                        </Array>
                    </mxGeometry>
                </mxCell>
                <mxCell id="38" value="" style="endArrow=classic;html=1;exitX=1;exitY=0.5;exitDx=0;exitDy=0;strokeWidth=6;fontColor=#000000;strokeColor=#000000;" parent="1" source="27" edge="1">
                    <mxGeometry width="50" height="50" relative="1" as="geometry">
                        <mxPoint x="2180" y="342" as="sourcePoint"/>
                        <mxPoint x="2030" y="312" as="targetPoint"/>
                    </mxGeometry>
                </mxCell>
                <mxCell id="39" value="" style="endArrow=classic;html=1;exitX=1;exitY=0.25;exitDx=0;exitDy=0;strokeWidth=6;entryX=-0.002;entryY=0.402;entryDx=0;entryDy=0;entryPerimeter=0;fontColor=#000000;strokeColor=#000000;" parent="1" source="27" target="23" edge="1">
                    <mxGeometry width="50" height="50" relative="1" as="geometry">
                        <mxPoint x="2190" y="302" as="sourcePoint"/>
                        <mxPoint x="2170" y="262" as="targetPoint"/>
                    </mxGeometry>
                </mxCell>
                <mxCell id="40" value="" style="endArrow=classic;html=1;exitX=1;exitY=0.75;exitDx=0;exitDy=0;entryX=0;entryY=0.75;entryDx=0;entryDy=0;strokeWidth=6;fontColor=#000000;strokeColor=#000000;" parent="1" source="27" target="31" edge="1">
                    <mxGeometry width="50" height="50" relative="1" as="geometry">
                        <mxPoint x="2190" y="312" as="sourcePoint"/>
                        <mxPoint x="2170" y="362" as="targetPoint"/>
                    </mxGeometry>
                </mxCell>
                <mxCell id="41" value="" style="edgeStyle=elbowEdgeStyle;elbow=horizontal;endArrow=none;html=1;curved=0;rounded=0;endSize=8;startSize=8;exitX=1;exitY=0.75;exitDx=0;exitDy=0;strokeWidth=6;endFill=0;fontColor=#000000;strokeColor=#000000;" parent="1" source="31" edge="1">
                    <mxGeometry width="50" height="50" relative="1" as="geometry">
                        <mxPoint x="2710" y="362" as="sourcePoint"/>
                        <mxPoint x="2270" y="310" as="targetPoint"/>
                        <Array as="points">
                            <mxPoint x="2270" y="320"/>
                        </Array>
                    </mxGeometry>
                </mxCell>
                <mxCell id="42" value="" style="edgeStyle=elbowEdgeStyle;elbow=horizontal;endArrow=none;html=1;curved=0;rounded=0;endSize=8;startSize=8;exitX=1;exitY=0.5;exitDx=0;exitDy=0;strokeWidth=6;endFill=0;fontColor=#000000;strokeColor=#000000;" parent="1" source="31" edge="1">
                    <mxGeometry width="50" height="50" relative="1" as="geometry">
                        <mxPoint x="2710" y="302" as="sourcePoint"/>
                        <mxPoint x="2270" y="312" as="targetPoint"/>
                    </mxGeometry>
                </mxCell>
                <mxCell id="43" value="" style="edgeStyle=elbowEdgeStyle;elbow=horizontal;endArrow=classic;html=1;curved=0;rounded=0;endSize=8;startSize=8;exitX=1;exitY=0.25;exitDx=0;exitDy=0;strokeWidth=6;entryX=1;entryY=0.627;entryDx=0;entryDy=0;entryPerimeter=0;fontColor=#000000;strokeColor=#000000;" parent="1" source="31" target="GH7_EwWvfFFCplkIZbcH-1" edge="1">
                    <mxGeometry width="50" height="50" relative="1" as="geometry">
                        <mxPoint x="2720" y="282" as="sourcePoint"/>
                        <mxPoint x="2410" y="312" as="targetPoint"/>
                        <Array as="points">
                            <mxPoint x="2270" y="270"/>
                        </Array>
                    </mxGeometry>
                </mxCell>
                <mxCell id="45" value="" style="endArrow=none;html=1;exitX=0;exitY=0.5;exitDx=0;exitDy=0;strokeWidth=6;entryX=1;entryY=0.5;entryDx=0;entryDy=0;endFill=0;fontColor=#000000;strokeColor=#000000;" parent="1" source="GH7_EwWvfFFCplkIZbcH-4" target="GH7_EwWvfFFCplkIZbcH-6" edge="1">
                    <mxGeometry width="50" height="50" relative="1" as="geometry">
                        <mxPoint x="302.9999999999998" y="322.0000000000001" as="sourcePoint"/>
                        <mxPoint x="310" y="312" as="targetPoint"/>
                    </mxGeometry>
                </mxCell>
                <mxCell id="GH7_EwWvfFFCplkIZbcH-4" value="" style="rounded=1;whiteSpace=wrap;html=1;absoluteArcSize=1;arcSize=14;strokeWidth=2;fillColor=#F8CECC;fontColor=#000000;strokeColor=#B85450;" parent="1" vertex="1">
                    <mxGeometry x="310" y="270" width="130" height="122" as="geometry"/>
                </mxCell>
                <mxCell id="GH7_EwWvfFFCplkIZbcH-5" value="" style="rounded=1;whiteSpace=wrap;html=1;absoluteArcSize=1;arcSize=14;strokeWidth=2;fillColor=#F8CECC;fontColor=#000000;strokeColor=#B85450;" parent="1" vertex="1">
                    <mxGeometry x="460" y="270" width="130" height="122" as="geometry"/>
                </mxCell>
                <mxCell id="GH7_EwWvfFFCplkIZbcH-6" value="" style="rounded=1;whiteSpace=wrap;html=1;absoluteArcSize=1;arcSize=14;strokeWidth=2;fillColor=#F8CECC;fontColor=#000000;strokeColor=#B85450;" parent="1" vertex="1">
                    <mxGeometry x="610" y="270" width="130" height="122" as="geometry"/>
                </mxCell>
                <mxCell id="47" value="" style="endArrow=none;html=1;exitX=0;exitY=0.5;exitDx=0;exitDy=0;strokeWidth=6;entryX=1;entryY=0.5;entryDx=0;entryDy=0;endFill=0;fontColor=#000000;strokeColor=#000000;" parent="1" source="GH7_EwWvfFFCplkIZbcH-8" target="GH7_EwWvfFFCplkIZbcH-10" edge="1">
                    <mxGeometry width="50" height="50" relative="1" as="geometry">
                        <mxPoint x="879.9999999999998" y="311.57" as="sourcePoint"/>
                        <mxPoint x="959.9999999999998" y="311.57" as="targetPoint"/>
                    </mxGeometry>
                </mxCell>
                <mxCell id="GH7_EwWvfFFCplkIZbcH-8" value="" style="rounded=1;whiteSpace=wrap;html=1;absoluteArcSize=1;arcSize=14;strokeWidth=2;fillColor=#F8CECC;fontColor=#000000;strokeColor=#B85450;" parent="1" vertex="1">
                    <mxGeometry x="880" y="270" width="130" height="122" as="geometry"/>
                </mxCell>
                <mxCell id="GH7_EwWvfFFCplkIZbcH-9" value="" style="rounded=1;whiteSpace=wrap;html=1;absoluteArcSize=1;arcSize=14;strokeWidth=2;fillColor=#F8CECC;fontColor=#000000;strokeColor=#B85450;" parent="1" vertex="1">
                    <mxGeometry x="1030" y="270" width="130" height="122" as="geometry"/>
                </mxCell>
                <mxCell id="GH7_EwWvfFFCplkIZbcH-10" value="" style="rounded=1;whiteSpace=wrap;html=1;absoluteArcSize=1;arcSize=14;strokeWidth=2;fillColor=#F8CECC;fontColor=#000000;strokeColor=#B85450;" parent="1" vertex="1">
                    <mxGeometry x="1180" y="270" width="130" height="122" as="geometry"/>
                </mxCell>
                <mxCell id="48" value="" style="endArrow=none;html=1;exitX=0;exitY=0.5;exitDx=0;exitDy=0;strokeWidth=6;entryX=1;entryY=0.5;entryDx=0;entryDy=0;endFill=0;fontColor=#000000;strokeColor=#000000;" parent="1" source="28" target="29" edge="1">
                    <mxGeometry width="50" height="50" relative="1" as="geometry">
                        <mxPoint x="1980" y="322" as="sourcePoint"/>
                        <mxPoint x="2040" y="322" as="targetPoint"/>
                    </mxGeometry>
                </mxCell>
                <mxCell id="32" value="" style="rounded=1;whiteSpace=wrap;html=1;absoluteArcSize=1;arcSize=14;strokeWidth=2;fillColor=#F8CECC;fontColor=#000000;strokeColor=#B85450;" parent="1" vertex="1">
                    <mxGeometry x="2070" y="270" width="130" height="122" as="geometry"/>
                </mxCell>
                <mxCell id="29" value="" style="rounded=1;whiteSpace=wrap;html=1;absoluteArcSize=1;arcSize=14;strokeWidth=2;fillColor=#F8CECC;fontColor=#000000;strokeColor=#B85450;" parent="1" vertex="1">
                    <mxGeometry x="1810" y="270" width="130" height="122" as="geometry"/>
                </mxCell>
                <mxCell id="28" value="" style="rounded=1;whiteSpace=wrap;html=1;absoluteArcSize=1;arcSize=14;strokeWidth=2;fillColor=#F8CECC;fontColor=#000000;strokeColor=#B85450;" parent="1" vertex="1">
                    <mxGeometry x="1660" y="270" width="130" height="122" as="geometry"/>
                </mxCell>
                <mxCell id="51" value="&lt;font style=&quot;font-size: 30px;&quot;&gt;Pipeline&lt;/font&gt;" style="text;html=1;align=center;verticalAlign=middle;whiteSpace=wrap;rounded=0;fontColor=#000000;" parent="1" vertex="1">
                    <mxGeometry x="20" y="70" width="120" height="39" as="geometry"/>
                </mxCell>
                <mxCell id="52" value="&lt;font style=&quot;font-size: 30px;&quot;&gt;Controller&lt;/font&gt;" style="text;html=1;align=center;verticalAlign=middle;whiteSpace=wrap;rounded=0;fontColor=#000000;" parent="1" vertex="1">
                    <mxGeometry x="160" y="130" width="140" height="39" as="geometry"/>
                </mxCell>
                <mxCell id="53" value="&lt;font&gt;&lt;span style=&quot;font-size: 30px;&quot;&gt;Phase&lt;/span&gt;&lt;/font&gt;" style="text;html=1;align=center;verticalAlign=middle;whiteSpace=wrap;rounded=0;fontColor=#000000;" parent="1" vertex="1">
                    <mxGeometry x="290" y="220" width="120" height="39" as="geometry"/>
                </mxCell>
                <mxCell id="54" value="&lt;font&gt;&lt;span style=&quot;font-size: 30px;&quot;&gt;Module&lt;/span&gt;&lt;/font&gt;" style="text;html=1;align=center;verticalAlign=middle;whiteSpace=wrap;rounded=0;fontColor=#000000;" parent="1" vertex="1">
                    <mxGeometry x="315" y="277.5" width="120" height="39" as="geometry"/>
                </mxCell>
                <mxCell id="55" value="&lt;font&gt;&lt;span style=&quot;font-size: 30px;&quot;&gt;Module&lt;/span&gt;&lt;/font&gt;" style="text;html=1;align=center;verticalAlign=middle;whiteSpace=wrap;rounded=0;fontColor=#000000;" parent="1" vertex="1">
                    <mxGeometry x="465" y="277.5" width="120" height="39" as="geometry"/>
                </mxCell>
                <mxCell id="56" value="&lt;font&gt;&lt;span style=&quot;font-size: 30px;&quot;&gt;Module&lt;/span&gt;&lt;/font&gt;" style="text;html=1;align=center;verticalAlign=middle;whiteSpace=wrap;rounded=0;fontColor=#000000;" parent="1" vertex="1">
                    <mxGeometry x="615" y="277.5" width="120" height="39" as="geometry"/>
                </mxCell>
                <mxCell id="57" value="&lt;font&gt;&lt;span style=&quot;font-size: 30px;&quot;&gt;Module&lt;/span&gt;&lt;/font&gt;" style="text;html=1;align=center;verticalAlign=middle;whiteSpace=wrap;rounded=0;fontColor=#000000;" parent="1" vertex="1">
                    <mxGeometry x="885" y="280" width="120" height="39" as="geometry"/>
                </mxCell>
                <mxCell id="58" value="&lt;font&gt;&lt;span style=&quot;font-size: 30px;&quot;&gt;Module&lt;/span&gt;&lt;/font&gt;" style="text;html=1;align=center;verticalAlign=middle;whiteSpace=wrap;rounded=0;fontColor=#000000;" parent="1" vertex="1">
                    <mxGeometry x="1035" y="280" width="120" height="39" as="geometry"/>
                </mxCell>
                <mxCell id="59" value="&lt;font&gt;&lt;span style=&quot;font-size: 30px;&quot;&gt;Module&lt;/span&gt;&lt;/font&gt;" style="text;html=1;align=center;verticalAlign=middle;whiteSpace=wrap;rounded=0;fontColor=#000000;" parent="1" vertex="1">
                    <mxGeometry x="1185" y="280" width="120" height="39" as="geometry"/>
                </mxCell>
                <mxCell id="60" value="&lt;font&gt;&lt;span style=&quot;font-size: 30px;&quot;&gt;Module&lt;/span&gt;&lt;/font&gt;" style="text;html=1;align=center;verticalAlign=middle;whiteSpace=wrap;rounded=0;fontColor=#000000;" parent="1" vertex="1">
                    <mxGeometry x="1665" y="280" width="120" height="39" as="geometry"/>
                </mxCell>
                <mxCell id="61" value="&lt;font&gt;&lt;span style=&quot;font-size: 30px;&quot;&gt;Module&lt;/span&gt;&lt;/font&gt;" style="text;html=1;align=center;verticalAlign=middle;whiteSpace=wrap;rounded=0;fontColor=#000000;" parent="1" vertex="1">
                    <mxGeometry x="1815" y="280" width="120" height="39" as="geometry"/>
                </mxCell>
                <mxCell id="62" value="&lt;font&gt;&lt;span style=&quot;font-size: 30px;&quot;&gt;Module&lt;/span&gt;&lt;/font&gt;" style="text;html=1;align=center;verticalAlign=middle;whiteSpace=wrap;rounded=0;fontColor=#000000;" parent="1" vertex="1">
                    <mxGeometry x="2075" y="280" width="120" height="39" as="geometry"/>
                </mxCell>
                <mxCell id="63" value="&lt;font&gt;&lt;span style=&quot;font-size: 30px;&quot;&gt;Phase&lt;/span&gt;&lt;/font&gt;" style="text;html=1;align=center;verticalAlign=middle;whiteSpace=wrap;rounded=0;fontColor=#000000;" parent="1" vertex="1">
                    <mxGeometry x="860" y="220" width="120" height="39" as="geometry"/>
                </mxCell>
                <mxCell id="64" value="&lt;font&gt;&lt;span style=&quot;font-size: 30px;&quot;&gt;Phase&lt;/span&gt;&lt;/font&gt;" style="text;html=1;align=center;verticalAlign=middle;whiteSpace=wrap;rounded=0;fontColor=#000000;" parent="1" vertex="1">
                    <mxGeometry x="1640" y="220" width="120" height="39" as="geometry"/>
                </mxCell>
                <mxCell id="65" value="&lt;font&gt;&lt;span style=&quot;font-size: 30px;&quot;&gt;Phase&lt;/span&gt;&lt;/font&gt;" style="text;html=1;align=center;verticalAlign=middle;whiteSpace=wrap;rounded=0;fontColor=#000000;" parent="1" vertex="1">
                    <mxGeometry x="2050" y="220" width="120" height="39" as="geometry"/>
                </mxCell>
                <mxCell id="66" value="&lt;font style=&quot;font-size: 30px;&quot;&gt;Controller&lt;/font&gt;" style="text;html=1;align=center;verticalAlign=middle;whiteSpace=wrap;rounded=0;fontColor=#000000;" parent="1" vertex="1">
                    <mxGeometry x="1510" y="130" width="140" height="39" as="geometry"/>
                </mxCell>
                <mxCell id="73" value="" style="verticalLabelPosition=bottom;html=1;verticalAlign=top;align=center;strokeColor=#000000;fillColor=#FFFFFF;shape=mxgraph.azure.cloud_service_package_file;labelBackgroundColor=none;strokeWidth=4;fontSize=30;fontColor=#000000;" parent="1" vertex="1">
                    <mxGeometry x="60" y="275.5" width="62.05" height="73" as="geometry"/>
                </mxCell>
                <mxCell id="74" value="" style="verticalLabelPosition=bottom;html=1;verticalAlign=top;align=center;strokeColor=#000000;fillColor=#FFFFFF;shape=mxgraph.azure.cloud_service_package_file;labelBackgroundColor=none;strokeWidth=4;fontSize=30;fontColor=#000000;" parent="1" vertex="1">
                    <mxGeometry x="2380" y="277.5" width="62.05" height="73" as="geometry"/>
                </mxCell>
            </root>
        </mxGraphModel>
    </diagram>
</mxfile>